<svg xmlns="http://www.w3.org/2000/svg" xmlns:wrs="http://www.wiris.com/xml/cvs-extension" height="23" width="170" wrs:baseline="19"><!--MathML: <math xmlns="http://www.w3.org/1998/Math/MathML"><mroot><mn>1111111111</mn><mn>2222222222</mn></mroot></math>--><defs><style type="text/css"/></defs><line stroke="#000000" stroke-linecap="square" stroke-width="1" x1="0.5" x2="1.5" y1="13.5" y2="13.5"/><line stroke="#000000" stroke-linecap="square" stroke-width="1" x1="2.5" x2="3.5" y1="13.5" y2="13.5"/><line stroke="#000000" stroke-linecap="square" stroke-width="1" x1="4.5" x2="5.5" y1="13.5" y2="13.5"/><line stroke="#000000" stroke-linecap="square" stroke-width="1" x1="6.5" x2="7.5" y1="13.5" y2="13.5"/><line stroke="#000000" stroke-linecap="square" stroke-width="1" x1="8.5" x2="9.5" y1="13.5" y2="13.5"/><line stroke="#000000" stroke-linecap="square" stroke-width="1" x1="10.5" x2="11.5" y1="13.5" y2="13.5"/><line stroke="#000000" stroke-linecap="square" stroke-width="1" x1="12.5" x2="13.5" y1="13.5" y2="13.5"/><line stroke="#000000" stroke-linecap="square" stroke-width="1" x1="14.5" x2="15.5" y1="13.5" y2="13.5"/><line stroke="#000000" stroke-linecap="square" stroke-width="1" x1="16.5" x2="17.5" y1="13.5" y2="13.5"/><line stroke="#000000" stroke-linecap="square" stroke-width="1" x1="18.5" x2="19.5" y1="13.5" y2="13.5"/><line stroke="#000000" stroke-linecap="square" stroke-width="1" x1="20.5" x2="21.5" y1="13.5" y2="13.5"/><line stroke="#000000" stroke-linecap="square" stroke-width="1" x1="22.5" x2="23.5" y1="13.5" y2="13.5"/><line stroke="#000000" stroke-linecap="square" stroke-width="1" x1="24.5" x2="25.5" y1="13.5" y2="13.5"/><line stroke="#000000" stroke-linecap="square" stroke-width="1" x1="26.5" x2="27.5" y1="13.5" y2="13.5"/><line stroke="#000000" stroke-linecap="square" stroke-width="1" x1="28.5" x2="29.5" y1="13.5" y2="13.5"/><line stroke="#000000" stroke-linecap="square" stroke-width="1" x1="30.5" x2="31.5" y1="13.5" y2="13.5"/><line stroke="#000000" stroke-linecap="square" stroke-width="1" x1="32.5" x2="33.5" y1="13.5" y2="13.5"/><line stroke="#000000" stroke-linecap="square" stroke-width="1" x1="34.5" x2="35.5" y1="13.5" y2="13.5"/><line stroke="#000000" stroke-linecap="square" stroke-width="1" x1="36.5" x2="37.5" y1="13.5" y2="13.5"/><line stroke="#000000" stroke-linecap="square" stroke-width="1" x1="38.5" x2="39.5" y1="13.5" y2="13.5"/><line stroke="#000000" stroke-linecap="square" stroke-width="1" x1="40.5" x2="41.5" y1="13.5" y2="13.5"/><line stroke="#000000" stroke-linecap="square" stroke-width="1" x1="42.5" x2="43.5" y1="13.5" y2="13.5"/><line stroke="#000000" stroke-linecap="square" stroke-width="1" x1="44.5" x2="45.5" y1="13.5" y2="13.5"/><line stroke="#000000" stroke-linecap="square" stroke-width="1" x1="46.5" x2="47.5" y1="13.5" y2="13.5"/><line stroke="#000000" stroke-linecap="square" stroke-width="1" x1="48.5" x2="49.5" y1="13.5" y2="13.5"/><line stroke="#000000" stroke-linecap="square" stroke-width="1" x1="50.5" x2="51.5" y1="13.5" y2="13.5"/><line stroke="#000000" stroke-linecap="square" stroke-width="1" x1="52.5" x2="53.5" y1="13.5" y2="13.5"/><line stroke="#000000" stroke-linecap="square" stroke-width="1" x1="54.5" x2="55.5" y1="13.5" y2="13.5"/><line stroke="#000000" stroke-linecap="square" stroke-width="1" x1="56.5" x2="57.5" y1="13.5" y2="13.5"/><line stroke="#000000" stroke-linecap="square" stroke-width="1" x1="58.5" x2="59.5" y1="13.5" y2="13.5"/><line stroke="#000000" stroke-linecap="square" stroke-width="1" x1="60.5" x2="61.5" y1="13.5" y2="13.5"/><line stroke="#000000" stroke-linecap="square" stroke-width="1" x1="62.5" x2="63.5" y1="13.5" y2="13.5"/><line stroke="#000000" stroke-linecap="square" stroke-width="1" x1="64.5" x2="65.5" y1="13.5" y2="13.5"/><polyline fill="none" points="12,-16 11,-16 5,0 2,-6" stroke="#000000" stroke-linecap="square" stroke-width="1" transform="translate(63.5,20.5)"/><polyline fill="none" points="5,0 2,-6" stroke="#000000" stroke-linecap="square" stroke-width="1" transform="translate(63.5,20.5)"/><line stroke="#000000" stroke-linecap="square" stroke-width="1" x1="75.5" x2="168.5" y1="4.5" y2="4.5"/><text font-family="Arial" font-size="12" text-anchor="middle" x="33.5" y="11">2222222222</text><text font-family="Arial" font-size="16" text-anchor="middle" x="121.5" y="19">1111111111</text></svg>