<svg xmlns="http://www.w3.org/2000/svg" xmlns:wrs="http://www.wiris.com/xml/cvs-extension" height="23" width="54" wrs:baseline="19"><!--MathML: <math xmlns="http://www.w3.org/1998/Math/MathML"><mroot><mrow><mi>y</mi><mi>y</mi><mi>y</mi></mrow><mrow><mi>y</mi><mi>y</mi><mi>y</mi></mrow></mroot></math>--><defs><style type="text/css"/></defs><line stroke="#000000" stroke-linecap="square" stroke-width="1" x1="1.5" x2="2.5" y1="13.5" y2="13.5"/><line stroke="#000000" stroke-linecap="square" stroke-width="1" x1="3.5" x2="4.5" y1="13.5" y2="13.5"/><line stroke="#000000" stroke-linecap="square" stroke-width="1" x1="5.5" x2="6.5" y1="13.5" y2="13.5"/><line stroke="#000000" stroke-linecap="square" stroke-width="1" x1="7.5" x2="8.5" y1="13.5" y2="13.5"/><line stroke="#000000" stroke-linecap="square" stroke-width="1" x1="9.5" x2="10.5" y1="13.5" y2="13.5"/><line stroke="#000000" stroke-linecap="square" stroke-width="1" x1="11.5" x2="12.5" y1="13.5" y2="13.5"/><line stroke="#000000" stroke-linecap="square" stroke-width="1" x1="13.5" x2="14.5" y1="13.5" y2="13.5"/><polyline fill="none" points="12,-16 11,-16 5,0 2,-6" stroke="#000000" stroke-linecap="square" stroke-width="1" transform="translate(12.5,20.5)"/><polyline fill="none" points="5,0 2,-6" stroke="#000000" stroke-linecap="square" stroke-width="1" transform="translate(12.5,20.5)"/><line stroke="#000000" stroke-linecap="square" stroke-width="1" x1="24.5" x2="52.5" y1="4.5" y2="4.5"/><text font-family="Arial" font-size="12" font-style="italic" text-anchor="middle" x="3.5" y="11">y</text><text font-family="Arial" font-size="12" font-style="italic" text-anchor="middle" x="9.5" y="11">y</text><text font-family="Arial" font-size="12" font-style="italic" text-anchor="middle" x="15.5" y="11">y</text><text font-family="Arial" font-size="16" font-style="italic" text-anchor="middle" x="30.5" y="19">y</text><text font-family="Arial" font-size="16" font-style="italic" text-anchor="middle" x="38.5" y="19">y</text><text font-family="Arial" font-size="16" font-style="italic" text-anchor="middle" x="46.5" y="19">y</text></svg>